<svg width="5000" height="2174" viewBox="0 0 5000 2174" fill="none" xmlns="http://www.w3.org/2000/svg">
<path d="M0 267C0 156.543 89.5431 67 200 67V267H0Z" fill="#FF6666"/>
<path d="M0 267H200V467H0V267Z" fill="#FF6666"/>
<path d="M0 467H200V667H0V467Z" fill="#FF6666"/>
<path d="M0 667H200V867H0V667Z" fill="#FF6666"/>
<path d="M0 867H200V1067C89.5431 1067 0 977.457 0 867Z" fill="#FF6666"/>
<path d="M800 287C800 176.543 889.543 87 1000 87V287H800Z" fill="#FF6666"/>
<path d="M1000 87C1110.46 87 1200 176.543 1200 287H1000V87Z" fill="#FF6666"/>
<path d="M1200 287C1310.46 287 1400 376.543 1400 487C1289.54 487 1200 397.457 1200 287Z" fill="#FF6666"/>
<path d="M1400 487H1600V687C1489.54 687 1400 597.457 1400 487Z" fill="#FF6666"/>
<path d="M800 287H1000V487H800V287Z" fill="#FF6666"/>
<path d="M800 487H1000V687H800V487Z" fill="#FF6666"/>
<path d="M800 687H1000V887H800V687Z" fill="#FF6666"/>
<path d="M800 887H1000V987C1000 1042.23 955.228 1087 900 1087C844.772 1087 800 1042.23 800 987V887Z" fill="#FF6666"/>
<path d="M1600 187C1600 131.772 1644.77 87 1700 87C1755.23 87 1800 131.772 1800 187V287H1600V187Z" fill="#FF6666"/>
<path d="M1600 287H1800V487H1600V287Z" fill="#FF6666"/>
<path d="M1600 487H1800V687H1600V487Z" fill="#FF6666"/>
<path d="M1600 687H1800V887H1600V687Z" fill="#FF6666"/>
<path d="M1600 887H1800V987C1800 1042.23 1755.23 1087 1700 1087C1644.77 1087 1600 1042.23 1600 987V887Z" fill="#FF6666"/>
<path d="M3200 267C3200 156.543 3289.54 67 3400 67V267H3200Z" fill="#FF6666"/>
<path d="M3400 67C3510.46 67 3600 156.543 3600 267H3400V67Z" fill="#FF6666"/>
<path d="M3600 267H3800V367C3800 422.228 3755.23 467 3700 467C3644.77 467 3600 422.228 3600 367V267Z" fill="#FF6666"/>
<path d="M3800 267C3800 156.543 3889.54 67 4000 67V267H3800Z" fill="#FF6666"/>
<path d="M3200 267H3400V467H3200V267Z" fill="#FF6666"/>
<path d="M3200 467H3400V667H3200V467Z" fill="#FF6666"/>
<path d="M3200 667H3400V867H3200V667Z" fill="#FF6666"/>
<path d="M3200 867H3400V967C3400 1022.23 3355.23 1067 3300 1067C3244.77 1067 3200 1022.23 3200 967V867Z" fill="#FF6666"/>
<path d="M4000 67C4110.46 67 4200 156.543 4200 267H4000V67Z" fill="#FF6666"/>
<path d="M4000 267H4200V467H4000V267Z" fill="#FF6666"/>
<path d="M4000 467H4200V667H4000V467Z" fill="#FF6666"/>
<path d="M4000 667H4200V867H4000V667Z" fill="#FF6666"/>
<path d="M4000 867H4200V967C4200 1022.23 4155.23 1067 4100 1067C4044.77 1067 4000 1022.23 4000 967V867Z" fill="#FF6666"/>
<path d="M2000 187C2000 131.772 2044.77 87 2100 87C2155.23 87 2200 131.772 2200 187V287H2000V187Z" fill="#FF6666"/>
<path d="M2000 287H2200V487H2000V287Z" fill="#FF6666"/>
<path d="M2000 487H2200V687H2000V487Z" fill="#FF6666"/>
<path d="M2000 687H2200V887H2000V687Z" fill="#FF6666"/>
<path d="M2000 887H2200V987C2200 1042.23 2155.23 1087 2100 1087C2044.77 1087 2000 1042.23 2000 987V887Z" fill="#FF6666"/>
<path d="M400 867H500C555.228 867 600 911.772 600 967C600 1022.23 555.228 1067 500 1067H400V867Z" fill="#FF6666"/>
<path d="M200 867H400V1067H200V867Z" fill="#FF6666"/>
<path d="M400 467H500C555.228 467 600 511.772 600 567C600 622.228 555.228 667 500 667H400V467Z" fill="#FF6666"/>
<path d="M200 467H400V667H200V467Z" fill="#FF6666"/>
<path d="M400 67H500C555.228 67 600 111.772 600 167C600 222.228 555.228 267 500 267H400V67Z" fill="#FF6666"/>
<path d="M200 67H400V267H200V67Z" fill="#FF6666"/>
<path d="M2400 287C2400 176.543 2489.54 87 2600 87V287H2400Z" fill="#FF6666"/>
<path d="M2400 287H2600V487H2400V287Z" fill="#FF6666"/>
<path d="M2400 487H2600V687H2400V487Z" fill="#FF6666"/>
<path d="M2400 687H2600V887H2400V687Z" fill="#FF6666"/>
<path d="M2400 887H2600V1087C2489.54 1087 2400 997.457 2400 887Z" fill="#FF6666"/>
<path d="M2800 887H3000C3000 997.457 2910.46 1087 2800 1087V887Z" fill="#FF6666"/>
<path d="M2600 887H2800V1087H2600V887Z" fill="#FF6666"/>
<path d="M2800 587C2800 531.772 2844.77 487 2900 487C2955.23 487 3000 531.772 3000 587V687H2800V587Z" fill="#FF6666"/>
<path d="M2800 687H3000V887H2800V687Z" fill="#FF6666"/>
<path d="M2800 87H2900C2955.23 87 3000 131.772 3000 187C3000 242.228 2955.23 287 2900 287H2800V87Z" fill="#FF6666"/>
<path d="M2600 87H2800V287H2600V87Z" fill="#FF6666"/>
<path d="M4400 267C4400 156.543 4489.54 67 4600 67V267H4400Z" fill="#FF6666"/>
<path d="M4400 267H4600V467H4400V267Z" fill="#FF6666"/>
<path d="M4400 467H4600V667H4400V467Z" fill="#FF6666"/>
<path d="M4400 667H4600V867H4400V667Z" fill="#FF6666"/>
<path d="M4400 867H4600V967C4600 1022.23 4555.23 1067 4500 1067C4444.77 1067 4400 1022.23 4400 967V867Z" fill="#FF6666"/>
<path d="M4800 867H5000V967C5000 1022.23 4955.23 1067 4900 1067C4844.77 1067 4800 1022.23 4800 967V867Z" fill="#FF6666"/>
<path d="M4800 267H5000V467H4800V267Z" fill="#FF6666"/>
<path d="M4800 467H5000V667H4800V467Z" fill="#FF6666"/>
<path d="M4800 667H5000V867H4800V667Z" fill="#FF6666"/>
<path d="M4800 67C4910.46 67 5000 156.543 5000 267H4800V67Z" fill="#FF6666"/>
<path d="M4600 67H4800V267H4600V67Z" fill="#FF6666"/>
<path d="M0 200C0 89.5431 89.5431 0 200 0V200H0Z" fill="#FF0000"/>
<path d="M0 200H200V400H0V200Z" fill="#FF0000"/>
<path d="M0 400H200V600H0V400Z" fill="#FF0000"/>
<path d="M0 600H200V800H0V600Z" fill="#FF0000"/>
<path d="M0 800H200V1000C89.5431 1000 0 910.457 0 800Z" fill="#FF0000"/>
<path d="M800 220C800 109.543 889.543 20 1000 20V220H800Z" fill="#FF0000"/>
<path d="M1000 20C1110.46 20 1200 109.543 1200 220H1000V20Z" fill="#FF0000"/>
<path d="M1200 220C1310.46 220 1400 309.543 1400 420C1289.54 420 1200 330.457 1200 220Z" fill="#FF0000"/>
<path d="M1400 420H1600V620C1489.54 620 1400 530.457 1400 420Z" fill="#FF0000"/>
<path d="M800 220H1000V420H800V220Z" fill="#FF0000"/>
<path d="M800 420H1000V620H800V420Z" fill="#FF0000"/>
<path d="M800 620H1000V820H800V620Z" fill="#FF0000"/>
<path d="M800 820H1000V920C1000 975.228 955.228 1020 900 1020C844.772 1020 800 975.228 800 920V820Z" fill="#FF0000"/>
<path d="M1600 120C1600 64.7715 1644.77 20 1700 20C1755.23 20 1800 64.7715 1800 120V220H1600V120Z" fill="#FF0000"/>
<path d="M1600 220H1800V420H1600V220Z" fill="#FF0000"/>
<path d="M1600 420H1800V620H1600V420Z" fill="#FF0000"/>
<path d="M1600 620H1800V820H1600V620Z" fill="#FF0000"/>
<path d="M1600 820H1800V920C1800 975.228 1755.23 1020 1700 1020C1644.77 1020 1600 975.228 1600 920V820Z" fill="#FF0000"/>
<path d="M3200 200C3200 89.5431 3289.54 0 3400 0V200H3200Z" fill="#FF0000"/>
<path d="M3400 0C3510.46 0 3600 89.5431 3600 200H3400V0Z" fill="#FF0000"/>
<path d="M3600 200H3800V300C3800 355.228 3755.23 400 3700 400C3644.77 400 3600 355.228 3600 300V200Z" fill="#FF0000"/>
<path d="M3800 200C3800 89.5431 3889.54 0 4000 0V200H3800Z" fill="#FF0000"/>
<path d="M3200 200H3400V400H3200V200Z" fill="#FF0000"/>
<path d="M3200 400H3400V600H3200V400Z" fill="#FF0000"/>
<path d="M3200 600H3400V800H3200V600Z" fill="#FF0000"/>
<path d="M3200 800H3400V900C3400 955.228 3355.23 1000 3300 1000C3244.77 1000 3200 955.228 3200 900V800Z" fill="#FF0000"/>
<path d="M4000 0C4110.46 0 4200 89.5431 4200 200H4000V0Z" fill="#FF0000"/>
<path d="M4000 200H4200V400H4000V200Z" fill="#FF0000"/>
<path d="M4000 400H4200V600H4000V400Z" fill="#FF0000"/>
<path d="M4000 600H4200V800H4000V600Z" fill="#FF0000"/>
<path d="M4000 800H4200V900C4200 955.228 4155.23 1000 4100 1000C4044.77 1000 4000 955.228 4000 900V800Z" fill="#FF0000"/>
<path d="M2000 120C2000 64.7715 2044.77 20 2100 20C2155.23 20 2200 64.7715 2200 120V220H2000V120Z" fill="#FF0000"/>
<path d="M2000 220H2200V420H2000V220Z" fill="#FF0000"/>
<path d="M2000 420H2200V620H2000V420Z" fill="#FF0000"/>
<path d="M2000 620H2200V820H2000V620Z" fill="#FF0000"/>
<path d="M2000 820H2200V920C2200 975.228 2155.23 1020 2100 1020C2044.77 1020 2000 975.228 2000 920V820Z" fill="#FF0000"/>
<path d="M400 800H500C555.228 800 600 844.772 600 900C600 955.228 555.228 1000 500 1000H400V800Z" fill="#FF0000"/>
<path d="M200 800H400V1000H200V800Z" fill="#FF0000"/>
<path d="M400 400H500C555.228 400 600 444.772 600 500C600 555.228 555.228 600 500 600H400V400Z" fill="#FF0000"/>
<path d="M200 400H400V600H200V400Z" fill="#FF0000"/>
<path d="M400 0H500C555.228 0 600 44.7715 600 100C600 155.228 555.228 200 500 200H400V0Z" fill="#FF0000"/>
<path d="M200 0H400V200H200V0Z" fill="#FF0000"/>
<path d="M2400 220C2400 109.543 2489.54 20 2600 20V220H2400Z" fill="#FF0000"/>
<path d="M2400 220H2600V420H2400V220Z" fill="#FF0000"/>
<path d="M2400 420H2600V620H2400V420Z" fill="#FF0000"/>
<path d="M2400 620H2600V820H2400V620Z" fill="#FF0000"/>
<path d="M2400 820H2600V1020C2489.54 1020 2400 930.457 2400 820Z" fill="#FF0000"/>
<path d="M2800 820H3000C3000 930.457 2910.46 1020 2800 1020V820Z" fill="#FF0000"/>
<path d="M2600 820H2800V1020H2600V820Z" fill="#FF0000"/>
<path d="M2800 520C2800 464.772 2844.77 420 2900 420C2955.23 420 3000 464.772 3000 520V620H2800V520Z" fill="#FF0000"/>
<path d="M2800 620H3000V820H2800V620Z" fill="#FF0000"/>
<path d="M2800 20H2900C2955.23 20 3000 64.7715 3000 120C3000 175.228 2955.23 220 2900 220H2800V20Z" fill="#FF0000"/>
<path d="M2600 20H2800V220H2600V20Z" fill="#FF0000"/>
<path d="M4400 200C4400 89.5431 4489.54 0 4600 0V200H4400Z" fill="#FF0000"/>
<path d="M4400 200H4600V400H4400V200Z" fill="#FF0000"/>
<path d="M4400 400H4600V600H4400V400Z" fill="#FF0000"/>
<path d="M4400 600H4600V800H4400V600Z" fill="#FF0000"/>
<path d="M4400 800H4600V900C4600 955.228 4555.23 1000 4500 1000C4444.77 1000 4400 955.228 4400 900V800Z" fill="#FF0000"/>
<path d="M4800 800H5000V900C5000 955.228 4955.23 1000 4900 1000C4844.77 1000 4800 955.228 4800 900V800Z" fill="#FF0000"/>
<path d="M4800 200H5000V400H4800V200Z" fill="#FF0000"/>
<path d="M4800 400H5000V600H4800V400Z" fill="#FF0000"/>
<path d="M4800 600H5000V800H4800V600Z" fill="#FF0000"/>
<path d="M4800 0C4910.46 0 5000 89.5431 5000 200H4800V0Z" fill="#FF0000"/>
<path d="M4600 0H4800V200H4600V0Z" fill="#FF0000"/>
<path d="M5000 1974C5000 2084.46 4910.46 2174 4800 2174V1974H5000Z" fill="#FF6666"/>
<path d="M5000 1974H4800V1774H5000V1974Z" fill="#FF6666"/>
<path d="M5000 1774H4800V1574H5000V1774Z" fill="#FF6666"/>
<path d="M5000 1574H4800V1374H5000V1574Z" fill="#FF6666"/>
<path d="M5000 1374H4800V1174C4910.46 1174 5000 1263.54 5000 1374Z" fill="#FF6666"/>
<path d="M4200 1954C4200 2064.46 4110.46 2154 4000 2154V1954H4200Z" fill="#FF6666"/>
<path d="M4000 2154C3889.54 2154 3800 2064.46 3800 1954L4000 1954V2154Z" fill="#FF6666"/>
<path d="M3800 1954C3689.54 1954 3600 1864.46 3600 1754C3710.46 1754 3800 1843.54 3800 1954Z" fill="#FF6666"/>
<path d="M3600 1754H3400V1554C3510.46 1554 3600 1643.54 3600 1754Z" fill="#FF6666"/>
<path d="M4200 1954H4000V1754H4200V1954Z" fill="#FF6666"/>
<path d="M4200 1754H4000V1554H4200V1754Z" fill="#FF6666"/>
<path d="M4200 1554H4000V1354H4200V1554Z" fill="#FF6666"/>
<path d="M4200 1354H4000V1254C4000 1198.77 4044.77 1154 4100 1154C4155.23 1154 4200 1198.77 4200 1254V1354Z" fill="#FF6666"/>
<path d="M3400 2054C3400 2109.23 3355.23 2154 3300 2154C3244.77 2154 3200 2109.23 3200 2054V1954H3400V2054Z" fill="#FF6666"/>
<path d="M3400 1954H3200V1754H3400V1954Z" fill="#FF6666"/>
<path d="M3400 1754H3200V1554H3400V1754Z" fill="#FF6666"/>
<path d="M3400 1554H3200V1354H3400V1554Z" fill="#FF6666"/>
<path d="M3400 1354H3200V1254C3200 1198.77 3244.77 1154 3300 1154C3355.23 1154 3400 1198.77 3400 1254V1354Z" fill="#FF6666"/>
<path d="M1800 1974C1800 2084.46 1710.46 2174 1600 2174V1974H1800Z" fill="#FF6666"/>
<path d="M1600 2174C1489.54 2174 1400 2084.46 1400 1974H1600V2174Z" fill="#FF6666"/>
<path d="M1400 1974H1200V1874C1200 1818.77 1244.77 1774 1300 1774C1355.23 1774 1400 1818.77 1400 1874V1974Z" fill="#FF6666"/>
<path d="M1200 1974C1200 2084.46 1110.46 2174 1000 2174V1974H1200Z" fill="#FF6666"/>
<path d="M1800 1974H1600V1774H1800V1974Z" fill="#FF6666"/>
<path d="M1800 1774H1600V1574H1800V1774Z" fill="#FF6666"/>
<path d="M1800 1574H1600V1374H1800V1574Z" fill="#FF6666"/>
<path d="M1800 1374H1600V1274C1600 1218.77 1644.77 1174 1700 1174C1755.23 1174 1800 1218.77 1800 1274V1374Z" fill="#FF6666"/>
<path d="M1000 2174C889.543 2174 800 2084.46 800 1974H1000V2174Z" fill="#FF6666"/>
<path d="M1000 1974H800V1774H1000V1974Z" fill="#FF6666"/>
<path d="M1000 1774H800V1574H1000V1774Z" fill="#FF6666"/>
<path d="M1000 1574H800V1374H1000V1574Z" fill="#FF6666"/>
<path d="M1000 1374H800V1274C800 1218.77 844.772 1174 900 1174C955.228 1174 1000 1218.77 1000 1274V1374Z" fill="#FF6666"/>
<path d="M3000 2054C3000 2109.23 2955.23 2154 2900 2154C2844.77 2154 2800 2109.23 2800 2054V1954H3000V2054Z" fill="#FF6666"/>
<path d="M3000 1954H2800V1754H3000V1954Z" fill="#FF6666"/>
<path d="M3000 1754H2800V1554H3000V1754Z" fill="#FF6666"/>
<path d="M3000 1554H2800V1354H3000V1554Z" fill="#FF6666"/>
<path d="M3000 1354H2800V1254C2800 1198.77 2844.77 1154 2900 1154C2955.23 1154 3000 1198.77 3000 1254V1354Z" fill="#FF6666"/>
<path d="M4600 1374H4500C4444.77 1374 4400 1329.23 4400 1274C4400 1218.77 4444.77 1174 4500 1174H4600V1374Z" fill="#FF6666"/>
<path d="M4800 1374H4600V1174H4800V1374Z" fill="#FF6666"/>
<path d="M4600 1774H4500C4444.77 1774 4400 1729.23 4400 1674C4400 1618.77 4444.77 1574 4500 1574H4600V1774Z" fill="#FF6666"/>
<path d="M4800 1774H4600V1574H4800V1774Z" fill="#FF6666"/>
<path d="M4600 2174H4500C4444.77 2174 4400 2129.23 4400 2074C4400 2018.77 4444.77 1974 4500 1974H4600V2174Z" fill="#FF6666"/>
<path d="M4800 2174H4600V1974H4800V2174Z" fill="#FF6666"/>
<path d="M2600 1954C2600 2064.46 2510.46 2154 2400 2154V1954H2600Z" fill="#FF6666"/>
<path d="M2600 1954H2400V1754L2600 1754V1954Z" fill="#FF6666"/>
<path d="M2600 1754L2400 1754V1554H2600V1754Z" fill="#FF6666"/>
<path d="M2600 1554H2400V1354H2600V1554Z" fill="#FF6666"/>
<path d="M2600 1354H2400V1154C2510.46 1154 2600 1243.54 2600 1354Z" fill="#FF6666"/>
<path d="M2200 1354H2000C2000 1243.54 2089.54 1154 2200 1154V1354Z" fill="#FF6666"/>
<path d="M2400 1354H2200V1154H2400V1354Z" fill="#FF6666"/>
<path d="M2200 1654C2200 1709.23 2155.23 1754 2100 1754C2044.77 1754 2000 1709.23 2000 1654V1554H2200V1654Z" fill="#FF6666"/>
<path d="M2200 1554H2000V1354H2200V1554Z" fill="#FF6666"/>
<path d="M2200 2154H2100C2044.77 2154 2000 2109.23 2000 2054C2000 1998.77 2044.77 1954 2100 1954H2200V2154Z" fill="#FF6666"/>
<path d="M2400 2154H2200V1954L2400 1954V2154Z" fill="#FF6666"/>
<path d="M600 1974C600 2084.46 510.457 2174 400 2174V1974H600Z" fill="#FF6666"/>
<path d="M600 1974H400V1774H600V1974Z" fill="#FF6666"/>
<path d="M600 1774H400V1574H600V1774Z" fill="#FF6666"/>
<path d="M600 1574H400V1374H600V1574Z" fill="#FF6666"/>
<path d="M600 1374H400V1274C400 1218.77 444.772 1174 500 1174C555.228 1174 600 1218.77 600 1274V1374Z" fill="#FF6666"/>
<path d="M200 1374H0V1274C0 1218.77 44.7715 1174 100 1174C155.228 1174 200 1218.77 200 1274V1374Z" fill="#FF6666"/>
<path d="M200 1974H0V1774L200 1774V1974Z" fill="#FF6666"/>
<path d="M200 1774L0 1774V1574H200V1774Z" fill="#FF6666"/>
<path d="M200 1574H0V1374H200V1574Z" fill="#FF6666"/>
<path d="M200 2174C89.5431 2174 0 2084.46 0 1974H200V2174Z" fill="#FF6666"/>
<path d="M400 2174H200V1974L400 1974V2174Z" fill="#FF6666"/>
<path d="M5000 1907C5000 2017.46 4910.46 2107 4800 2107V1907H5000Z" fill="#FF0000"/>
<path d="M5000 1907H4800V1707H5000V1907Z" fill="#FF0000"/>
<path d="M5000 1707H4800V1507H5000V1707Z" fill="#FF0000"/>
<path d="M5000 1507H4800V1307H5000V1507Z" fill="#FF0000"/>
<path d="M5000 1307H4800V1107C4910.46 1107 5000 1196.54 5000 1307Z" fill="#FF0000"/>
<path d="M4200 1887C4200 1997.46 4110.46 2087 4000 2087V1887H4200Z" fill="#FF0000"/>
<path d="M4000 2087C3889.54 2087 3800 1997.46 3800 1887L4000 1887V2087Z" fill="#FF0000"/>
<path d="M3800 1887C3689.54 1887 3600 1797.46 3600 1687C3710.46 1687 3800 1776.54 3800 1887Z" fill="#FF0000"/>
<path d="M3600 1687H3400V1487C3510.46 1487 3600 1576.54 3600 1687Z" fill="#FF0000"/>
<path d="M4200 1887H4000V1687H4200V1887Z" fill="#FF0000"/>
<path d="M4200 1687H4000V1487H4200V1687Z" fill="#FF0000"/>
<path d="M4200 1487H4000V1287H4200V1487Z" fill="#FF0000"/>
<path d="M4200 1287H4000V1187C4000 1131.77 4044.77 1087 4100 1087C4155.23 1087 4200 1131.77 4200 1187V1287Z" fill="#FF0000"/>
<path d="M3400 1987C3400 2042.23 3355.23 2087 3300 2087C3244.77 2087 3200 2042.23 3200 1987V1887H3400V1987Z" fill="#FF0000"/>
<path d="M3400 1887H3200V1687H3400V1887Z" fill="#FF0000"/>
<path d="M3400 1687H3200V1487H3400V1687Z" fill="#FF0000"/>
<path d="M3400 1487H3200V1287H3400V1487Z" fill="#FF0000"/>
<path d="M3400 1287H3200V1187C3200 1131.77 3244.77 1087 3300 1087C3355.23 1087 3400 1131.77 3400 1187V1287Z" fill="#FF0000"/>
<path d="M1800 1907C1800 2017.46 1710.46 2107 1600 2107V1907H1800Z" fill="#FF0000"/>
<path d="M1600 2107C1489.54 2107 1400 2017.46 1400 1907H1600V2107Z" fill="#FF0000"/>
<path d="M1400 1907H1200V1807C1200 1751.77 1244.77 1707 1300 1707C1355.23 1707 1400 1751.77 1400 1807V1907Z" fill="#FF0000"/>
<path d="M1200 1907C1200 2017.46 1110.46 2107 1000 2107V1907H1200Z" fill="#FF0000"/>
<path d="M1800 1907H1600V1707H1800V1907Z" fill="#FF0000"/>
<path d="M1800 1707H1600V1507H1800V1707Z" fill="#FF0000"/>
<path d="M1800 1507H1600V1307H1800V1507Z" fill="#FF0000"/>
<path d="M1800 1307H1600V1207C1600 1151.77 1644.77 1107 1700 1107C1755.23 1107 1800 1151.77 1800 1207V1307Z" fill="#FF0000"/>
<path d="M1000 2107C889.543 2107 800 2017.46 800 1907H1000V2107Z" fill="#FF0000"/>
<path d="M1000 1907H800V1707H1000V1907Z" fill="#FF0000"/>
<path d="M1000 1707H800V1507H1000V1707Z" fill="#FF0000"/>
<path d="M1000 1507H800V1307H1000V1507Z" fill="#FF0000"/>
<path d="M1000 1307H800V1207C800 1151.77 844.772 1107 900 1107C955.228 1107 1000 1151.77 1000 1207V1307Z" fill="#FF0000"/>
<path d="M3000 1987C3000 2042.23 2955.23 2087 2900 2087C2844.77 2087 2800 2042.23 2800 1987V1887H3000V1987Z" fill="#FF0000"/>
<path d="M3000 1887H2800V1687H3000V1887Z" fill="#FF0000"/>
<path d="M3000 1687H2800V1487H3000V1687Z" fill="#FF0000"/>
<path d="M3000 1487H2800V1287H3000V1487Z" fill="#FF0000"/>
<path d="M3000 1287H2800V1187C2800 1131.77 2844.77 1087 2900 1087C2955.23 1087 3000 1131.77 3000 1187V1287Z" fill="#FF0000"/>
<path d="M4600 1307H4500C4444.77 1307 4400 1262.23 4400 1207C4400 1151.77 4444.77 1107 4500 1107H4600V1307Z" fill="#FF0000"/>
<path d="M4800 1307H4600V1107H4800V1307Z" fill="#FF0000"/>
<path d="M4600 1707H4500C4444.77 1707 4400 1662.23 4400 1607C4400 1551.77 4444.77 1507 4500 1507H4600V1707Z" fill="#FF0000"/>
<path d="M4800 1707H4600V1507H4800V1707Z" fill="#FF0000"/>
<path d="M4600 2107H4500C4444.77 2107 4400 2062.23 4400 2007C4400 1951.77 4444.77 1907 4500 1907H4600V2107Z" fill="#FF0000"/>
<path d="M4800 2107H4600V1907H4800V2107Z" fill="#FF0000"/>
<path d="M2600 1887C2600 1997.46 2510.46 2087 2400 2087V1887H2600Z" fill="#FF0000"/>
<path d="M2600 1887H2400V1687L2600 1687V1887Z" fill="#FF0000"/>
<path d="M2600 1687L2400 1687V1487H2600V1687Z" fill="#FF0000"/>
<path d="M2600 1487H2400V1287H2600V1487Z" fill="#FF0000"/>
<path d="M2600 1287H2400V1087C2510.46 1087 2600 1176.54 2600 1287Z" fill="#FF0000"/>
<path d="M2200 1287H2000C2000 1176.54 2089.54 1087 2200 1087V1287Z" fill="#FF0000"/>
<path d="M2400 1287H2200V1087H2400V1287Z" fill="#FF0000"/>
<path d="M2200 1587C2200 1642.23 2155.23 1687 2100 1687C2044.77 1687 2000 1642.23 2000 1587V1487H2200V1587Z" fill="#FF0000"/>
<path d="M2200 1487H2000V1287H2200V1487Z" fill="#FF0000"/>
<path d="M2200 2087H2100C2044.77 2087 2000 2042.23 2000 1987C2000 1931.77 2044.77 1887 2100 1887H2200V2087Z" fill="#FF0000"/>
<path d="M2400 2087H2200V1887L2400 1887V2087Z" fill="#FF0000"/>
<path d="M600 1907C600 2017.46 510.457 2107 400 2107V1907H600Z" fill="#FF0000"/>
<path d="M600 1907H400V1707H600V1907Z" fill="#FF0000"/>
<path d="M600 1707H400V1507H600V1707Z" fill="#FF0000"/>
<path d="M600 1507H400V1307H600V1507Z" fill="#FF0000"/>
<path d="M600 1307H400V1207C400 1151.77 444.772 1107 500 1107C555.228 1107 600 1151.77 600 1207V1307Z" fill="#FF0000"/>
<path d="M200 1307H0V1207C0 1151.77 44.7715 1107 100 1107C155.228 1107 200 1151.77 200 1207V1307Z" fill="#FF0000"/>
<path d="M200 1907H0V1707L200 1707V1907Z" fill="#FF0000"/>
<path d="M200 1707L0 1707V1507H200V1707Z" fill="#FF0000"/>
<path d="M200 1507H0V1307H200V1507Z" fill="#FF0000"/>
<path d="M200 2107C89.5431 2107 0 2017.46 0 1907H200V2107Z" fill="#FF0000"/>
<path d="M400 2107H200V1907L400 1907V2107Z" fill="#FF0000"/>
</svg>
